<svg
  xmlns="http://www.w3.org/2000/svg"
  xmlns:xlink="http://www.w3.org/1999/xlink"
  xml:space="preserve"
  width="40"
  height="40"
  viewBox="0 0 40 40"
>
  <defs>
    <linearGradient id="a">
      <stop offset="0" style="stop-color: #7e8081; stop-opacity: 1" />
      <stop offset="1" style="stop-color: #cbcdcd; stop-opacity: 1" />
    </linearGradient>
    <linearGradient
      xlink:href="#a"
      id="b"
      x1="18.938"
      x2="18.938"
      y1="6.75"
      y2="34.627"
      gradientUnits="userSpaceOnUse"
    />
    <filter
      id="c"
      width="1.689"
      height="1.79"
      x="-.344"
      y="-.327"
      style="color-interpolation-filters: sRGB"
    >
      <feFlood flood-color="#fff" flood-opacity=".498" result="flood" />
      <feGaussianBlur in="SourceGraphic" result="blur" stdDeviation="2" />
      <feOffset dy="2" in="blur" result="offset" />
      <feComposite in="flood" in2="offset" operator="in" result="comp1" />
      <feComposite in="SourceGraphic" in2="comp1" result="fbSourceGraphic" />
      <feColorMatrix
        in="fbSourceGraphic"
        result="fbSourceGraphicAlpha"
        values="0 0 0 -1 0 0 0 0 -1 0 0 0 0 -1 0 0 0 0 1 0"
      />
      <feFlood flood-color="#000" flood-opacity=".498" result="flood" />
      <feGaussianBlur in="fbSourceGraphic" result="blur" stdDeviation="2" />
      <feOffset dy="2" in="blur" result="offset" />
      <feComposite in="flood" in2="offset" operator="out" result="comp1" />
      <feComposite in="comp1" in2="fbSourceGraphic" operator="atop" result="comp2" />
    </filter>
  </defs>
  <title>Search</title>
  <path
    d="M17 6A12 12 0 0 0 5 18a12 12 0 0 0 12 12 12 12 0 0 0 6.148-1.695l7.073 7.072 2.656-2.656-6.834-6.832v-.002A12 12 0 0 0 29 18 12 12 0 0 0 17 6m0 3.977A8.024 8.024 0 0 1 25.023 18 8.024 8.024 0 0 1 17 26.023 8.024 8.024 0 0 1 8.977 18 8.024 8.024 0 0 1 17 9.977"
    style="
      display: inline;
      opacity: 1;
      fill: url(#b);
      fill-opacity: 1;
      stroke-width: 1;
      stroke-linejoin: round;
      filter: url(#c);
    "
  />
</svg>