<svg xmlns="http://www.w3.org/2000/svg" xmlns:xlink="http://www.w3.org/1999/xlink" xml:space="preserve" width="512" height="512" viewBox="0 0 512 512"><defs><linearGradient id="i"><stop offset=".053" style="stop-color:#393939;stop-opacity:1"/><stop offset=".896" style="stop-color:#020202;stop-opacity:1"/></linearGradient><linearGradient id="h"><stop offset="0" style="stop-color:#808a98;stop-opacity:1"/><stop offset="1" style="stop-color:#576678;stop-opacity:1"/></linearGradient><linearGradient id="g"><stop offset=".053" style="stop-color:#393939;stop-opacity:1"/><stop offset="1" style="stop-color:#020202;stop-opacity:1"/></linearGradient><linearGradient xlink:href="#h" id="l" x1="242.755" x2="242.755" y1="124.157" y2="390.3" gradientUnits="userSpaceOnUse"/><linearGradient xlink:href="#i" id="k" x1="256" x2="256" y1="0" y2="512" gradientUnits="userSpaceOnUse"/><radialGradient xlink:href="#g" id="j" cx="256" cy="0" r="256" fx="256" fy="0" gradientTransform="matrix(0 2 -1.38659 0 256 -512)" gradientUnits="userSpaceOnUse"/><filter id="m" width="1.023" height="1.026" x="-.011" y="-.009" style="color-interpolation-filters:sRGB"><feFlood flood-color="#fff" flood-opacity=".349" result="flood"/><feGaussianBlur in="SourceGraphic" result="blur" stdDeviation="1"/><feOffset dy="2" in="blur" result="offset"/><feComposite in="flood" in2="offset" operator="out" result="comp1"/><feComposite in="comp1" in2="SourceGraphic" operator="atop" result="comp2"/></filter></defs><path d="M0 0h512v512H0z" style="fill:url(#j);stroke-linejoin:round"/><path d="M0 0h512v512H0z" style="display:inline;opacity:.3;mix-blend-mode:lighten;fill:url(#k);stroke-linejoin:round"/><path d="m347.962 124.157-151.394 23.375v180.717a31.085 40.112 71.376 0 0-19.735-1.807 31.085 40.112 71.376 0 0-39.285 36.69 31.085 40.112 71.376 0 0 39.285 26.785 31.085 40.112 71.376 0 0 39.288-36.688 31.085 40.112 71.376 0 0 0-.01V209.19l112.287-17.338V303.71a31.085 40.112 71.376 0 0-19.733-1.807 31.085 40.112 71.376 0 0-39.287 36.69 31.085 40.112 71.376 0 0 39.287 26.787 31.085 40.112 71.376 0 0 39.287-36.69V188.833Z" style="fill:url(#l);fill-opacity:1;stroke-width:1;stroke-linejoin:round;filter:url(#m)"/></svg>