<svg xmlns="http://www.w3.org/2000/svg" xmlns:xlink="http://www.w3.org/1999/xlink" xml:space="preserve" width="512" height="512" viewBox="0 0 512 512"><defs><radialGradient xlink:href="#a" id="g" cx="456.149" cy="454.075" r="245.66" fx="456.149" fy="454.075" gradientUnits="userSpaceOnUse"/><radialGradient xlink:href="#b" id="f" cx="83.899" cy="436.323" r="245.66" fx="83.899" fy="436.323" gradientTransform="matrix(1.31615 .02323 -.02177 1.2336 -12.11 -98.44)" gradientUnits="userSpaceOnUse"/><radialGradient xlink:href="#d" id="o" cx="139.425" cy="286.67" r="116.027" fx="139.425" fy="286.67" gradientTransform="matrix(1 0 0 .72334 -14.25 102.821)" gradientUnits="userSpaceOnUse"/><radialGradient xlink:href="#d" id="v" cx="139.425" cy="286.67" r="116.027" fx="139.425" fy="286.67" gradientTransform="matrix(1 0 0 .72334 -14.25 102.821)" gradientUnits="userSpaceOnUse"/><radialGradient xlink:href="#d" id="p" cx="139.425" cy="286.67" r="116.027" fx="139.425" fy="286.67" gradientTransform="matrix(1 0 0 .72334 -14.25 102.821)" gradientUnits="userSpaceOnUse"/><radialGradient xlink:href="#d" id="r" cx="139.425" cy="286.67" r="116.027" fx="139.425" fy="286.67" gradientTransform="matrix(1 0 0 .72334 -14.25 102.821)" gradientUnits="userSpaceOnUse"/><radialGradient xlink:href="#d" id="s" cx="139.425" cy="286.67" r="116.027" fx="139.425" fy="286.67" gradientTransform="matrix(1 0 0 .72334 -14.25 102.821)" gradientUnits="userSpaceOnUse"/><radialGradient xlink:href="#d" id="t" cx="139.425" cy="286.67" r="116.027" fx="139.425" fy="286.67" gradientTransform="matrix(1 0 0 .72334 -14.25 102.821)" gradientUnits="userSpaceOnUse"/><radialGradient xlink:href="#d" id="u" cx="139.425" cy="286.67" r="116.027" fx="139.425" fy="286.67" gradientTransform="matrix(1 0 0 .72334 -14.25 102.821)" gradientUnits="userSpaceOnUse"/><radialGradient xlink:href="#d" id="D" cx="139.425" cy="286.67" r="116.027" fx="139.425" fy="286.67" gradientTransform="matrix(1 0 0 .72334 -14.25 102.821)" gradientUnits="userSpaceOnUse"/><radialGradient xlink:href="#d" id="F" cx="139.425" cy="286.67" r="116.027" fx="139.425" fy="286.67" gradientTransform="matrix(1 0 0 .72334 -14.25 102.821)" gradientUnits="userSpaceOnUse"/><radialGradient xlink:href="#d" id="G" cx="139.425" cy="286.67" r="116.027" fx="139.425" fy="286.67" gradientTransform="matrix(1 0 0 .72334 -14.25 102.821)" gradientUnits="userSpaceOnUse"/><radialGradient xlink:href="#d" id="H" cx="139.425" cy="286.67" r="116.027" fx="139.425" fy="286.67" gradientTransform="matrix(1 0 0 .72334 -14.25 102.821)" gradientUnits="userSpaceOnUse"/><radialGradient xlink:href="#d" id="I" cx="139.425" cy="286.67" r="116.027" fx="139.425" fy="286.67" gradientTransform="matrix(1 0 0 .72334 -14.25 102.821)" gradientUnits="userSpaceOnUse"/><radialGradient xlink:href="#d" id="J" cx="139.425" cy="286.67" r="116.027" fx="139.425" fy="286.67" gradientTransform="matrix(1 0 0 .72334 -14.25 102.821)" gradientUnits="userSpaceOnUse"/><radialGradient xlink:href="#d" id="K" cx="139.425" cy="286.67" r="116.027" fx="139.425" fy="286.67" gradientTransform="matrix(1 0 0 .72334 -14.25 102.821)" gradientUnits="userSpaceOnUse"/><radialGradient xlink:href="#d" id="M" cx="139.425" cy="286.67" r="116.027" fx="139.425" fy="286.67" gradientTransform="matrix(1 0 0 .72334 -14.25 102.821)" gradientUnits="userSpaceOnUse"/><radialGradient xlink:href="#d" id="N" cx="139.425" cy="286.67" r="116.027" fx="139.425" fy="286.67" gradientTransform="matrix(1 0 0 .72334 -14.25 102.821)" gradientUnits="userSpaceOnUse"/><radialGradient xlink:href="#d" id="O" cx="139.425" cy="286.67" r="116.027" fx="139.425" fy="286.67" gradientTransform="matrix(1 0 0 .72334 -14.25 102.821)" gradientUnits="userSpaceOnUse"/><radialGradient xlink:href="#d" id="P" cx="139.425" cy="286.67" r="116.027" fx="139.425" fy="286.67" gradientTransform="matrix(1 0 0 .72334 -14.25 102.821)" gradientUnits="userSpaceOnUse"/><radialGradient xlink:href="#d" id="Q" cx="139.425" cy="286.67" r="116.027" fx="139.425" fy="286.67" gradientTransform="matrix(1 0 0 .72334 -14.25 102.821)" gradientUnits="userSpaceOnUse"/><radialGradient xlink:href="#d" id="w" cx="139.425" cy="286.67" r="116.027" fx="139.425" fy="286.67" gradientTransform="matrix(1 0 0 .72334 -14.25 102.821)" gradientUnits="userSpaceOnUse"/><radialGradient xlink:href="#d" id="y" cx="139.425" cy="286.67" r="116.027" fx="139.425" fy="286.67" gradientTransform="matrix(1 0 0 .72334 -14.25 102.821)" gradientUnits="userSpaceOnUse"/><radialGradient xlink:href="#d" id="z" cx="139.425" cy="286.67" r="116.027" fx="139.425" fy="286.67" gradientTransform="matrix(1 0 0 .72334 -14.25 102.821)" gradientUnits="userSpaceOnUse"/><radialGradient xlink:href="#d" id="A" cx="139.425" cy="286.67" r="116.027" fx="139.425" fy="286.67" gradientTransform="matrix(1 0 0 .72334 -14.25 102.821)" gradientUnits="userSpaceOnUse"/><radialGradient xlink:href="#d" id="B" cx="139.425" cy="286.67" r="116.027" fx="139.425" fy="286.67" gradientTransform="matrix(1 0 0 .72334 -14.25 102.821)" gradientUnits="userSpaceOnUse"/><radialGradient xlink:href="#d" id="C" cx="139.425" cy="286.67" r="116.027" fx="139.425" fy="286.67" gradientTransform="matrix(1 0 0 .72334 -14.25 102.821)" gradientUnits="userSpaceOnUse"/><radialGradient xlink:href="#d" id="i" cx="139.425" cy="286.67" r="116.027" fx="139.425" fy="286.67" gradientTransform="matrix(1 0 0 .72334 -14.25 102.821)" gradientUnits="userSpaceOnUse"/><radialGradient xlink:href="#d" id="k" cx="139.425" cy="286.67" r="116.027" fx="139.425" fy="286.67" gradientTransform="matrix(1 0 0 .72334 -14.25 102.821)" gradientUnits="userSpaceOnUse"/><radialGradient xlink:href="#d" id="l" cx="139.425" cy="286.67" r="116.027" fx="139.425" fy="286.67" gradientTransform="matrix(1 0 0 .72334 -14.25 102.821)" gradientUnits="userSpaceOnUse"/><radialGradient xlink:href="#d" id="m" cx="139.425" cy="286.67" r="116.027" fx="139.425" fy="286.67" gradientTransform="matrix(1 0 0 .72334 -14.25 102.821)" gradientUnits="userSpaceOnUse"/><radialGradient xlink:href="#d" id="n" cx="139.425" cy="286.67" r="116.027" fx="139.425" fy="286.67" gradientTransform="matrix(1 0 0 .72334 -14.25 102.821)" gradientUnits="userSpaceOnUse"/><filter id="e" width="1.029" height="1.039" x="-.015" y="-.015" style="color-interpolation-filters:sRGB"><feFlood flood-color="#000" flood-opacity=".749" result="flood"/><feGaussianBlur in="SourceGraphic" result="blur" stdDeviation="3"/><feOffset dy="5" in="blur" result="offset"/><feComposite in="flood" in2="offset" operator="in" result="comp1"/><feComposite in="SourceGraphic" in2="comp1" result="comp2"/></filter><filter id="U" width="1.108" height="1.091" x="-.054" y="-.038" style="color-interpolation-filters:sRGB"><feFlood flood-color="#000" flood-opacity=".749" result="flood"/><feGaussianBlur in="SourceGraphic" result="blur" stdDeviation="5"/><feOffset dy="5" in="blur" result="offset"/><feComposite in="flood" in2="offset" operator="out" result="comp1"/><feComposite in="comp1" in2="SourceGraphic" operator="atop" result="comp2"/></filter><filter id="T" width="1.263" height="1.343" x="-.131" y="-.143" style="color-interpolation-filters:sRGB"><feFlood flood-color="#fff" flood-opacity=".502" result="flood"/><feGaussianBlur in="SourceGraphic" result="blur" stdDeviation="5"/><feOffset dy="5" in="blur" result="offset"/><feComposite in="flood" in2="offset" operator="in" result="comp1"/><feComposite in="comp1" in2="SourceGraphic" operator="out" result="comp2"/></filter><filter id="h" width="1.029" height="1.039" x="-.015" y="-.015" style="color-interpolation-filters:sRGB"><feFlood flood-color="#fff" flood-opacity="1" result="flood"/><feGaussianBlur in="SourceGraphic" result="blur" stdDeviation="3"/><feOffset dy="5.001" in="blur" result="offset"/><feComposite in="flood" in2="offset" operator="out" result="comp1"/><feComposite in="comp1" in2="SourceGraphic" operator="in" result="comp2"/></filter><filter id="j" width="1.805" height="2.626" x="-.402" y="-.813" style="color-interpolation-filters:sRGB"><feGaussianBlur stdDeviation="4.554"/></filter><filter id="q" width="1.805" height="2.626" x="-.402" y="-.813" style="color-interpolation-filters:sRGB"><feGaussianBlur stdDeviation="4.554"/></filter><filter id="E" width="1.805" height="2.626" x="-.402" y="-.813" style="color-interpolation-filters:sRGB"><feGaussianBlur stdDeviation="4.554"/></filter><filter id="L" width="1.805" height="2.626" x="-.402" y="-.813" style="color-interpolation-filters:sRGB"><feGaussianBlur stdDeviation="4.554"/></filter><filter id="x" width="1.805" height="2.626" x="-.402" y="-.813" style="color-interpolation-filters:sRGB"><feGaussianBlur stdDeviation="4.554"/></filter><linearGradient id="d"><stop offset="0" style="stop-color:#fff;stop-opacity:.79640889"/><stop offset="1" style="stop-color:#fff;stop-opacity:.40480736"/></linearGradient><linearGradient id="c"><stop offset=".181" style="stop-color:#fff;stop-opacity:.69999999"/><stop offset="1" style="stop-color:#fff;stop-opacity:.15000001"/></linearGradient><linearGradient id="a"><stop offset=".072" style="stop-color:#f0bb00;stop-opacity:1"/><stop offset="1" style="stop-color:#de8400;stop-opacity:0"/></linearGradient><linearGradient id="b"><stop offset="0" style="stop-color:#f21800;stop-opacity:1"/><stop offset="1" style="stop-color:#de8400;stop-opacity:0"/></linearGradient><linearGradient xlink:href="#c" id="R" x1="256" x2="256" y1="10.34" y2="256" gradientUnits="userSpaceOnUse"/><clipPath id="S" clipPathUnits="userSpaceOnUse"><rect width="491.321" height="491.321" x="10.34" y="10.34" ry="90.605" style="display:inline;fill:#000;fill-opacity:1;stroke-width:1;stroke-linejoin:round"/></clipPath></defs><rect width="491.321" height="491.321" x="10.34" y="10.34" ry="90.605" style="fill:#000;fill-opacity:1;stroke-width:1;stroke-linejoin:round;filter:url(#e)"/><rect width="491.321" height="491.321" x="10.34" y="10.34" ry="90.605" style="fill:#e47200;fill-opacity:1;stroke-width:1;stroke-linejoin:round"/><rect width="491.321" height="491.321" x="10.34" y="10.34" ry="90.605" style="opacity:.807;mix-blend-mode:color-burn;fill:url(#f);stroke-width:1;stroke-linejoin:round"/><rect width="491.321" height="491.321" x="10.34" y="10.34" ry="90.605" style="mix-blend-mode:normal;fill:url(#g);stroke-width:1;stroke-linejoin:round"/><rect width="491.321" height="491.321" x="10.34" y="10.34" ry="90.605" style="opacity:1;fill:#000;fill-opacity:1;stroke-width:1;stroke-linejoin:round;filter:url(#h)"/><g style="display:inline;opacity:.604;mix-blend-mode:overlay"><g style="display:inline"><path d="M49.547 256.269c-5.358 2.678 2.63 19.95-3.873 21.45-1.742.403-16.31-3.52-18.029-1.802-.425.425 0 1.202 0 1.803 0 6.327 7.211 2.403 9.616 6.01 1.701 2.552 2.96 26.488 1.202 28.246-4.858 4.857-11.431 7.825-15.626 12.02-.681.681 0 5.683 0 6.61 0 .47-.3 2.705 0 3.005 1.962 1.962 10.857-.387 13.823.601.737.246 2.042 3.566 3.005 4.207 1.406.938 4.355 2.1 5.408 4.207 4.387 8.773-12.299 2.222-14.423 5.409-1.738 2.607 0 12.347 0 15.625 0 .742-.527 3.68 0 4.207.829.829 3.664 2.118 4.808 2.404 6.55 1.638 35.615.523 41.468-2.404 1.675-.838 6.276-17.42 6.887-18.338 2.513-3.769 9.224 2.375 13.546 1.51 2.917-.583 9.785-.81 12.62 0 2.978.851 4.69 2.381 7.813 3.006 6.871 1.374 14.544.11 21.636 1.202 5.753.885 15.678 3.712 18.63 9.615.544 1.088.29 3.563.601 4.808 1.224 4.898 4.59 11.211 9.616 13.222 2.376.95 24.065 2.386 25.842 1.202 6.886-4.59 14.25-8.327 21.635-12.02 2.34-1.17 4.487-3.662 7.212-4.207 7.26-1.452 15.213.61 21.635-4.207 3.123-2.341 14.168-13.138 16.227-16.226 2.635-3.952 2.298-17.25 1.202-21.636-1.23-4.917-6.288-12.158-10.818-14.423-2.888-1.444-8.76 1.772-11.418 0-1.616-1.077-3.082-3.862-4.808-4.207-3.594-.719-8.414 0-12.02 0-13.707 0-40.503 12.515-44.473 0-4.722-14.89-4.9-32.265-12.111-35.87-6.015-3.007-21.745 19.723-28.154 18.442-3.626-.726 1.465-14.655-2.24-15.272-3.226-.538-16.324 12.894-19.396 11.666-5.434-2.174-3.613-25.116-9.466-26.579-5.373-1.343-19.392 21.767-24.79 19.968-8.21-2.737-24.077-23.254-32.787-23.254" style="opacity:1;fill:url(#i);fill-opacity:.478339;stroke:none;stroke-linejoin:round;stroke-opacity:1;filter:url(#j)"/><path d="M81.733 346.833c-3.171-1.054-11.338 1.883-13.822-.601-9.895-9.895 4.699-32.325-9.015-41.468-1.666-1.11-2.096-1.876-4.207-2.404-4.203-1.05-10.058 0-14.423 0-.343 0-2.334-.106-2.404 0-.864 1.296 0 7.45 0 9.015 0 1.99-.939 13.147-.601 13.822 1.511 3.023 7.147 6.547 9.615 9.015 1.818 1.818 5.95 1.12 7.813 3.606 2.513 3.35.203 12.425 1.803 15.626 2.94 5.88 10.78 4.497 16.828 6.01 2.27.567 9.116.398 10.216-1.803.403-.806.384-2.739.601-3.606.01-.042 3.567-7.813 1.803-7.813-1.416 0-2.804.4-4.207.6" style="opacity:1;fill:url(#k);fill-opacity:.478339;stroke:none;stroke-linejoin:round;stroke-opacity:1;filter:url(#j)"/><path d="M116.59 381.089c-2.003-1.402-3.822-3.114-6.01-4.207-.911-.456-12.132-1.69-13.221-.601-.534.534 0 4.748 0 5.409 0 1.365-.909 3.899 0 4.808 2.763 2.763 13.547 2.404 17.428 2.404 1.347 0 8.137.878 9.015 0 .781-.782-.012-8.132-.6-9.015-1.243-1.864-4.458.586-6.612 1.202" style="opacity:1;fill:url(#l);fill-opacity:.478339;stroke:none;stroke-linejoin:round;stroke-opacity:1;filter:url(#j)"/><path d="M239.19 350.439c-.6.801-2.604 1.803-1.802 2.404.8.6 2.753-2.721 1.803-2.404-2.056.685-3.471 2.637-5.41 3.606-2.72 1.36-8.4 1.733-11.418 2.404-6.464 1.436-12.725 4.86-18.63 7.812-1.779.89-3.533 3.137-5.41 3.606-2.109.528-5.011 0-7.211 0-1.619 0-5.644.672-7.212 0-3.268-1.4-16.486-15.204-17.428-18.03-.978-2.933-.601-6.456-.601-9.615 0-.679-.478-3.729 0-4.207 4.124-4.124 13.173-8.56 10.216-17.428-.806-2.421-10.17-1.202-12.62-1.202-1.611 0 .074-3.796-.601-4.808-1.266-1.899-12.92-2.204-14.424-1.202-1.79 1.194.681-.12-.6 1.803-3.952 5.927 1.777 13.221-9.616 13.221-.086 0-3.987.22-4.207 0-.37-.37.068-3.795 0-4.206-1.562-9.37.66-17.022 8.414-22.838 2.238-1.679 4.926-2.082 7.211-3.606 2.947-1.964 8.405-1.202 12.02-1.202 2.974 0 10.544-1.338 13.222 0 1.829.915 3.2 3.522 4.807 4.808 3.572 2.858 7.204 5.703 10.818 8.414 1.94 1.455 3.374 4.098 4.808 6.01 3.657 4.876 10.013 8.83 15.024 12.02 10.506 6.685 24.206.984 29.449 3.605 2.833 1.417 4.066 14.168 2.403 16.828-.913 1.461-2.003 2.804-3.004 4.207" style="opacity:1;fill:url(#m);fill-opacity:.478339;stroke:none;stroke-linejoin:round;stroke-opacity:1;filter:url(#j)"/><path d="M100.965 299.355H90.147c-11.214 0-10.818-2.077-10.818 10.217 0 .4.802 0 1.202 0h6.611c5.568 0 15.266-2.28 17.429 4.207.434 1.303-.11 20.911-.601 21.034-1.423.356-6.839-.974-7.813 0-.478.478 0 3.528 0 4.207 0 .757-.554 4.855 0 5.409.207.207 22.652 0 25.241 0 3.865 0 15.336 1.347 18.03 0 2.375-1.188 4.206-4.421 4.206-6.61 0-10.195-9.473-8.747-16.827-10.218-2.061-.412-3.744-1.803-6.01-1.803-.638 0-5.844-.09-6.61-.6-2.005-1.336-3.478-10.346-1.804-12.02 1.627-1.627 6.271-2.325 7.212-4.207.423-.845 0-3.404 0-4.207 0-6.144-5.164-5.409-10.817-5.409z" style="opacity:1;fill:url(#n);fill-opacity:.478339;stroke:none;stroke-linejoin:round;stroke-opacity:1;filter:url(#j)"/><path d="M143.635 232.427c-21.475-2.877 32.858 5.959-14.364-1.306-3.555-.547-4.918-3.917-9.14-3.917h-14.364c-1.6 0-5.576-.953-6.529 0-1.008 1.008-.616 13.13 0 14.363 2.665 5.328 11.752.302 11.752 13.058 0 1.74 1.231 3.992 0 5.223-4.382 4.382-20.26-2.928-26.115 0-3.3 1.65-.489 12.24-2.612 14.363-1.804 1.804-4.442 5.479-2.611 9.14 4.695 9.39 29.596-.436 33.95 3.918 8.73 8.73-2.2 13.058 20.892 13.058 1.476 0 8.181.959 9.14 0 5.557-5.557 1.892-34.085-1.305-40.48-2.772-5.543-11.807-4.082-14.364-11.751-4.488-13.466 16.975-2.66 16.975-6.529 0-3.078-.87-6.093-1.305-9.14" style="opacity:1;fill:url(#o);fill-opacity:.478339;stroke:none;stroke-linejoin:round;stroke-opacity:1;filter:url(#j)"/></g><g style="display:inline;opacity:.604;mix-blend-mode:overlay;stroke-width:.885146"><path d="M49.547 256.269c-5.358 2.678 2.63 19.95-3.873 21.45-1.742.403-16.31-3.52-18.029-1.802-.425.425 0 1.202 0 1.803 0 6.327 7.211 2.403 9.616 6.01 1.701 2.552 2.96 26.488 1.202 28.246-4.858 4.857-11.431 7.825-15.626 12.02-.681.681 0 5.683 0 6.61 0 .47-.3 2.705 0 3.005 1.962 1.962 10.857-.387 13.823.601.737.246 2.042 3.566 3.005 4.207 1.406.938 4.355 2.1 5.408 4.207 4.387 8.773-12.299 2.222-14.423 5.409-1.738 2.607 0 12.347 0 15.625 0 .742-.527 3.68 0 4.207.829.829 3.664 2.118 4.808 2.404 6.55 1.638 35.615.523 41.468-2.404 1.675-.838 6.276-17.42 6.887-18.338 2.513-3.769 9.224 2.375 13.546 1.51 2.917-.583 9.785-.81 12.62 0 2.978.851 4.69 2.381 7.813 3.006 6.871 1.374 14.544.11 21.636 1.202 5.753.885 15.678 3.712 18.63 9.615.544 1.088.29 3.563.601 4.808 1.224 4.898 4.59 11.211 9.616 13.222 2.376.95 24.065 2.386 25.842 1.202 6.886-4.59 14.25-8.327 21.635-12.02 2.34-1.17 4.487-3.662 7.212-4.207 7.26-1.452 15.213.61 21.635-4.207 3.123-2.341 14.168-13.138 16.227-16.226 2.635-3.952 2.298-17.25 1.202-21.636-1.23-4.917-6.288-12.158-10.818-14.423-2.888-1.444-8.76 1.772-11.418 0-1.616-1.077-3.082-3.862-4.808-4.207-3.594-.719-8.414 0-12.02 0-13.707 0-40.503 12.515-44.473 0-4.722-14.89-4.9-32.265-12.111-35.87-6.015-3.007-21.745 19.723-28.154 18.442-3.626-.726 1.465-14.655-2.24-15.272-3.226-.538-16.324 12.894-19.396 11.666-5.434-2.174-3.613-25.116-9.466-26.579-5.373-1.343-19.392 21.767-24.79 19.968-8.21-2.737-24.077-23.254-32.787-23.254" style="opacity:1;fill:url(#p);fill-opacity:.478339;stroke:none;stroke-width:.885146;stroke-linejoin:round;stroke-opacity:1;filter:url(#q)" transform="matrix(-1.23598 .24953 -.31848 -.96837 453.389 718.062)"/><path d="M81.733 346.833c-3.171-1.054-11.338 1.883-13.822-.601-9.895-9.895 4.699-32.325-9.015-41.468-1.666-1.11-2.096-1.876-4.207-2.404-4.203-1.05-10.058 0-14.423 0-.343 0-2.334-.106-2.404 0-.864 1.296 0 7.45 0 9.015 0 1.99-.939 13.147-.601 13.822 1.511 3.023 7.147 6.547 9.615 9.015 1.818 1.818 5.95 1.12 7.813 3.606 2.513 3.35.203 12.425 1.803 15.626 2.94 5.88 10.78 4.497 16.828 6.01 2.27.567 9.116.398 10.216-1.803.403-.806.384-2.739.601-3.606.01-.042 3.567-7.813 1.803-7.813-1.416 0-2.804.4-4.207.6" style="opacity:1;fill:url(#r);fill-opacity:.478339;stroke:none;stroke-width:.885146;stroke-linejoin:round;stroke-opacity:1;filter:url(#q)" transform="matrix(-1.23598 .24953 -.31848 -.96837 453.389 718.062)"/><path d="M116.59 381.089c-2.003-1.402-3.822-3.114-6.01-4.207-.911-.456-12.132-1.69-13.221-.601-.534.534 0 4.748 0 5.409 0 1.365-.909 3.899 0 4.808 2.763 2.763 13.547 2.404 17.428 2.404 1.347 0 8.137.878 9.015 0 .781-.782-.012-8.132-.6-9.015-1.243-1.864-4.458.586-6.612 1.202" style="opacity:1;fill:url(#s);fill-opacity:.478339;stroke:none;stroke-width:.885146;stroke-linejoin:round;stroke-opacity:1;filter:url(#q)" transform="matrix(-1.23598 .24953 -.31848 -.96837 453.389 718.062)"/><path d="M239.19 350.439c-.6.801-2.604 1.803-1.802 2.404.8.6 2.753-2.721 1.803-2.404-2.056.685-3.471 2.637-5.41 3.606-2.72 1.36-8.4 1.733-11.418 2.404-6.464 1.436-12.725 4.86-18.63 7.812-1.779.89-3.533 3.137-5.41 3.606-2.109.528-5.011 0-7.211 0-1.619 0-5.644.672-7.212 0-3.268-1.4-16.486-15.204-17.428-18.03-.978-2.933-.601-6.456-.601-9.615 0-.679-.478-3.729 0-4.207 4.124-4.124 13.173-8.56 10.216-17.428-.806-2.421-10.17-1.202-12.62-1.202-1.611 0 .074-3.796-.601-4.808-1.266-1.899-12.92-2.204-14.424-1.202-1.79 1.194.681-.12-.6 1.803-3.952 5.927 1.777 13.221-9.616 13.221-.086 0-3.987.22-4.207 0-.37-.37.068-3.795 0-4.206-1.562-9.37.66-17.022 8.414-22.838 2.238-1.679 4.926-2.082 7.211-3.606 2.947-1.964 8.405-1.202 12.02-1.202 2.974 0 10.544-1.338 13.222 0 1.829.915 3.2 3.522 4.807 4.808 3.572 2.858 7.204 5.703 10.818 8.414 1.94 1.455 3.374 4.098 4.808 6.01 3.657 4.876 10.013 8.83 15.024 12.02 10.506 6.685 24.206.984 29.449 3.605 2.833 1.417 4.066 14.168 2.403 16.828-.913 1.461-2.003 2.804-3.004 4.207" style="opacity:1;fill:url(#t);fill-opacity:.478339;stroke:none;stroke-width:.885146;stroke-linejoin:round;stroke-opacity:1;filter:url(#q)" transform="matrix(-1.23598 .24953 -.31848 -.96837 453.389 718.062)"/><path d="M100.965 299.355H90.147c-11.214 0-10.818-2.077-10.818 10.217 0 .4.802 0 1.202 0h6.611c5.568 0 15.266-2.28 17.429 4.207.434 1.303-.11 20.911-.601 21.034-1.423.356-6.839-.974-7.813 0-.478.478 0 3.528 0 4.207 0 .757-.554 4.855 0 5.409.207.207 22.652 0 25.241 0 3.865 0 15.336 1.347 18.03 0 2.375-1.188 4.206-4.421 4.206-6.61 0-10.195-9.473-8.747-16.827-10.218-2.061-.412-3.744-1.803-6.01-1.803-.638 0-5.844-.09-6.61-.6-2.005-1.336-3.478-10.346-1.804-12.02 1.627-1.627 6.271-2.325 7.212-4.207.423-.845 0-3.404 0-4.207 0-6.144-5.164-5.409-10.817-5.409z" style="opacity:1;fill:url(#u);fill-opacity:.478339;stroke:none;stroke-width:.885146;stroke-linejoin:round;stroke-opacity:1;filter:url(#q)" transform="matrix(-1.23598 .24953 -.31848 -.96837 453.389 718.062)"/><path d="M143.635 232.427c-21.475-2.877 32.858 5.959-14.364-1.306-3.555-.547-4.918-3.917-9.14-3.917h-14.364c-1.6 0-5.576-.953-6.529 0-1.008 1.008-.616 13.13 0 14.363 2.665 5.328 11.752.302 11.752 13.058 0 1.74 1.231 3.992 0 5.223-4.382 4.382-20.26-2.928-26.115 0-3.3 1.65-.489 12.24-2.612 14.363-1.804 1.804-4.442 5.479-2.611 9.14 4.695 9.39 29.596-.436 33.95 3.918 8.73 8.73-2.2 13.058 20.892 13.058 1.476 0 8.181.959 9.14 0 5.557-5.557 1.892-34.085-1.305-40.48-2.772-5.543-11.807-4.082-14.364-11.751-4.488-13.466 16.975-2.66 16.975-6.529 0-3.078-.87-6.093-1.305-9.14" style="opacity:1;fill:url(#v);fill-opacity:.478339;stroke:none;stroke-width:.885146;stroke-linejoin:round;stroke-opacity:1;filter:url(#q)" transform="matrix(-1.23598 .24953 -.31848 -.96837 453.389 718.062)"/></g><g style="display:inline;opacity:.604;mix-blend-mode:overlay;stroke-width:.885146"><path d="M49.547 256.269c-5.358 2.678 2.63 19.95-3.873 21.45-1.742.403-16.31-3.52-18.029-1.802-.425.425 0 1.202 0 1.803 0 6.327 7.211 2.403 9.616 6.01 1.701 2.552 2.96 26.488 1.202 28.246-4.858 4.857-11.431 7.825-15.626 12.02-.681.681 0 5.683 0 6.61 0 .47-.3 2.705 0 3.005 1.962 1.962 10.857-.387 13.823.601.737.246 2.042 3.566 3.005 4.207 1.406.938 4.355 2.1 5.408 4.207 4.387 8.773-12.299 2.222-14.423 5.409-1.738 2.607 0 12.347 0 15.625 0 .742-.527 3.68 0 4.207.829.829 3.664 2.118 4.808 2.404 6.55 1.638 35.615.523 41.468-2.404 1.675-.838 6.276-17.42 6.887-18.338 2.513-3.769 9.224 2.375 13.546 1.51 2.917-.583 9.785-.81 12.62 0 2.978.851 4.69 2.381 7.813 3.006 6.871 1.374 14.544.11 21.636 1.202 5.753.885 15.678 3.712 18.63 9.615.544 1.088.29 3.563.601 4.808 1.224 4.898 4.59 11.211 9.616 13.222 2.376.95 24.065 2.386 25.842 1.202 6.886-4.59 14.25-8.327 21.635-12.02 2.34-1.17 4.487-3.662 7.212-4.207 7.26-1.452 15.213.61 21.635-4.207 3.123-2.341 14.168-13.138 16.227-16.226 2.635-3.952 2.298-17.25 1.202-21.636-1.23-4.917-6.288-12.158-10.818-14.423-2.888-1.444-8.76 1.772-11.418 0-1.616-1.077-3.082-3.862-4.808-4.207-3.594-.719-8.414 0-12.02 0-13.707 0-40.503 12.515-44.473 0-4.722-14.89-4.9-32.265-12.111-35.87-6.015-3.007-21.745 19.723-28.154 18.442-3.626-.726 1.465-14.655-2.24-15.272-3.226-.538-16.324 12.894-19.396 11.666-5.434-2.174-3.613-25.116-9.466-26.579-5.373-1.343-19.392 21.767-24.79 19.968-8.21-2.737-24.077-23.254-32.787-23.254" style="opacity:1;fill:url(#w);fill-opacity:.478339;stroke:none;stroke-linejoin:round;stroke-opacity:1;filter:url(#x)" transform="rotate(165.55 141.202 369.378)"/><path d="M81.733 346.833c-3.171-1.054-11.338 1.883-13.822-.601-9.895-9.895 4.699-32.325-9.015-41.468-1.666-1.11-2.096-1.876-4.207-2.404-4.203-1.05-10.058 0-14.423 0-.343 0-2.334-.106-2.404 0-.864 1.296 0 7.45 0 9.015 0 1.99-.939 13.147-.601 13.822 1.511 3.023 7.147 6.547 9.615 9.015 1.818 1.818 5.95 1.12 7.813 3.606 2.513 3.35.203 12.425 1.803 15.626 2.94 5.88 10.78 4.497 16.828 6.01 2.27.567 9.116.398 10.216-1.803.403-.806.384-2.739.601-3.606.01-.042 3.567-7.813 1.803-7.813-1.416 0-2.804.4-4.207.6" style="opacity:1;fill:url(#y);fill-opacity:.478339;stroke:none;stroke-linejoin:round;stroke-opacity:1;filter:url(#x)" transform="rotate(165.55 141.202 369.378)"/><path d="M116.59 381.089c-2.003-1.402-3.822-3.114-6.01-4.207-.911-.456-12.132-1.69-13.221-.601-.534.534 0 4.748 0 5.409 0 1.365-.909 3.899 0 4.808 2.763 2.763 13.547 2.404 17.428 2.404 1.347 0 8.137.878 9.015 0 .781-.782-.012-8.132-.6-9.015-1.243-1.864-4.458.586-6.612 1.202" style="opacity:1;fill:url(#z);fill-opacity:.478339;stroke:none;stroke-linejoin:round;stroke-opacity:1;filter:url(#x)" transform="rotate(165.55 141.202 369.378)"/><path d="M239.19 350.439c-.6.801-2.604 1.803-1.802 2.404.8.6 2.753-2.721 1.803-2.404-2.056.685-3.471 2.637-5.41 3.606-2.72 1.36-8.4 1.733-11.418 2.404-6.464 1.436-12.725 4.86-18.63 7.812-1.779.89-3.533 3.137-5.41 3.606-2.109.528-5.011 0-7.211 0-1.619 0-5.644.672-7.212 0-3.268-1.4-16.486-15.204-17.428-18.03-.978-2.933-.601-6.456-.601-9.615 0-.679-.478-3.729 0-4.207 4.124-4.124 13.173-8.56 10.216-17.428-.806-2.421-10.17-1.202-12.62-1.202-1.611 0 .074-3.796-.601-4.808-1.266-1.899-12.92-2.204-14.424-1.202-1.79 1.194.681-.12-.6 1.803-3.952 5.927 1.777 13.221-9.616 13.221-.086 0-3.987.22-4.207 0-.37-.37.068-3.795 0-4.206-1.562-9.37.66-17.022 8.414-22.838 2.238-1.679 4.926-2.082 7.211-3.606 2.947-1.964 8.405-1.202 12.02-1.202 2.974 0 10.544-1.338 13.222 0 1.829.915 3.2 3.522 4.807 4.808 3.572 2.858 7.204 5.703 10.818 8.414 1.94 1.455 3.374 4.098 4.808 6.01 3.657 4.876 10.013 8.83 15.024 12.02 10.506 6.685 24.206.984 29.449 3.605 2.833 1.417 4.066 14.168 2.403 16.828-.913 1.461-2.003 2.804-3.004 4.207" style="opacity:1;fill:url(#A);fill-opacity:.478339;stroke:none;stroke-linejoin:round;stroke-opacity:1;filter:url(#x)" transform="rotate(165.55 141.202 369.378)"/><path d="M100.965 299.355H90.147c-11.214 0-10.818-2.077-10.818 10.217 0 .4.802 0 1.202 0h6.611c5.568 0 15.266-2.28 17.429 4.207.434 1.303-.11 20.911-.601 21.034-1.423.356-6.839-.974-7.813 0-.478.478 0 3.528 0 4.207 0 .757-.554 4.855 0 5.409.207.207 22.652 0 25.241 0 3.865 0 15.336 1.347 18.03 0 2.375-1.188 4.206-4.421 4.206-6.61 0-10.195-9.473-8.747-16.827-10.218-2.061-.412-3.744-1.803-6.01-1.803-.638 0-5.844-.09-6.61-.6-2.005-1.336-3.478-10.346-1.804-12.02 1.627-1.627 6.271-2.325 7.212-4.207.423-.845 0-3.404 0-4.207 0-6.144-5.164-5.409-10.817-5.409z" style="opacity:1;fill:url(#B);fill-opacity:.478339;stroke:none;stroke-linejoin:round;stroke-opacity:1;filter:url(#x)" transform="rotate(165.55 141.202 369.378)"/><path d="M143.635 232.427c-21.475-2.877 32.858 5.959-14.364-1.306-3.555-.547-4.918-3.917-9.14-3.917h-14.364c-1.6 0-5.576-.953-6.529 0-1.008 1.008-.616 13.13 0 14.363 2.665 5.328 11.752.302 11.752 13.058 0 1.74 1.231 3.992 0 5.223-4.382 4.382-20.26-2.928-26.115 0-3.3 1.65-.489 12.24-2.612 14.363-1.804 1.804-4.442 5.479-2.611 9.14 4.695 9.39 29.596-.436 33.95 3.918 8.73 8.73-2.2 13.058 20.892 13.058 1.476 0 8.181.959 9.14 0 5.557-5.557 1.892-34.085-1.305-40.48-2.772-5.543-11.807-4.082-14.364-11.751-4.488-13.466 16.975-2.66 16.975-6.529 0-3.078-.87-6.093-1.305-9.14" style="opacity:1;fill:url(#C);fill-opacity:.478339;stroke:none;stroke-linejoin:round;stroke-opacity:1;filter:url(#x)" transform="rotate(165.55 141.202 369.378)"/></g><g style="display:inline;opacity:.604;mix-blend-mode:overlay"><path d="M49.547 256.269c-5.358 2.678 2.63 19.95-3.873 21.45-1.742.403-16.31-3.52-18.029-1.802-.425.425 0 1.202 0 1.803 0 6.327 7.211 2.403 9.616 6.01 1.701 2.552 2.96 26.488 1.202 28.246-4.858 4.857-11.431 7.825-15.626 12.02-.681.681 0 5.683 0 6.61 0 .47-.3 2.705 0 3.005 1.962 1.962 10.857-.387 13.823.601.737.246 2.042 3.566 3.005 4.207 1.406.938 4.355 2.1 5.408 4.207 4.387 8.773-12.299 2.222-14.423 5.409-1.738 2.607 0 12.347 0 15.625 0 .742-.527 3.68 0 4.207.829.829 3.664 2.118 4.808 2.404 6.55 1.638 35.615.523 41.468-2.404 1.675-.838 6.276-17.42 6.887-18.338 2.513-3.769 9.224 2.375 13.546 1.51 2.917-.583 9.785-.81 12.62 0 2.978.851 4.69 2.381 7.813 3.006 6.871 1.374 14.544.11 21.636 1.202 5.753.885 15.678 3.712 18.63 9.615.544 1.088.29 3.563.601 4.808 1.224 4.898 4.59 11.211 9.616 13.222 2.376.95 24.065 2.386 25.842 1.202 6.886-4.59 14.25-8.327 21.635-12.02 2.34-1.17 4.487-3.662 7.212-4.207 7.26-1.452 15.213.61 21.635-4.207 3.123-2.341 14.168-13.138 16.227-16.226 2.635-3.952 2.298-17.25 1.202-21.636-1.23-4.917-6.288-12.158-10.818-14.423-2.888-1.444-8.76 1.772-11.418 0-1.616-1.077-3.082-3.862-4.808-4.207-3.594-.719-8.414 0-12.02 0-13.707 0-40.503 12.515-44.473 0-4.722-14.89-4.9-32.265-12.111-35.87-6.015-3.007-21.745 19.723-28.154 18.442-3.626-.726 1.465-14.655-2.24-15.272-3.226-.538-16.324 12.894-19.396 11.666-5.434-2.174-3.613-25.116-9.466-26.579-5.373-1.343-19.392 21.767-24.79 19.968-8.21-2.737-24.077-23.254-32.787-23.254" style="opacity:1;fill:url(#D);fill-opacity:.478339;stroke:none;stroke-linejoin:round;stroke-opacity:1;filter:url(#E)" transform="rotate(165.55 264.28 227.353)"/><path d="M81.733 346.833c-3.171-1.054-11.338 1.883-13.822-.601-9.895-9.895 4.699-32.325-9.015-41.468-1.666-1.11-2.096-1.876-4.207-2.404-4.203-1.05-10.058 0-14.423 0-.343 0-2.334-.106-2.404 0-.864 1.296 0 7.45 0 9.015 0 1.99-.939 13.147-.601 13.822 1.511 3.023 7.147 6.547 9.615 9.015 1.818 1.818 5.95 1.12 7.813 3.606 2.513 3.35.203 12.425 1.803 15.626 2.94 5.88 10.78 4.497 16.828 6.01 2.27.567 9.116.398 10.216-1.803.403-.806.384-2.739.601-3.606.01-.042 3.567-7.813 1.803-7.813-1.416 0-2.804.4-4.207.6" style="opacity:1;fill:url(#F);fill-opacity:.478339;stroke:none;stroke-linejoin:round;stroke-opacity:1;filter:url(#E)" transform="rotate(165.55 264.28 227.353)"/><path d="M116.59 381.089c-2.003-1.402-3.822-3.114-6.01-4.207-.911-.456-12.132-1.69-13.221-.601-.534.534 0 4.748 0 5.409 0 1.365-.909 3.899 0 4.808 2.763 2.763 13.547 2.404 17.428 2.404 1.347 0 8.137.878 9.015 0 .781-.782-.012-8.132-.6-9.015-1.243-1.864-4.458.586-6.612 1.202" style="opacity:1;fill:url(#G);fill-opacity:.478339;stroke:none;stroke-linejoin:round;stroke-opacity:1;filter:url(#E)" transform="rotate(165.55 264.28 227.353)"/><path d="M239.19 350.439c-.6.801-2.604 1.803-1.802 2.404.8.6 2.753-2.721 1.803-2.404-2.056.685-3.471 2.637-5.41 3.606-2.72 1.36-8.4 1.733-11.418 2.404-6.464 1.436-12.725 4.86-18.63 7.812-1.779.89-3.533 3.137-5.41 3.606-2.109.528-5.011 0-7.211 0-1.619 0-5.644.672-7.212 0-3.268-1.4-16.486-15.204-17.428-18.03-.978-2.933-.601-6.456-.601-9.615 0-.679-.478-3.729 0-4.207 4.124-4.124 13.173-8.56 10.216-17.428-.806-2.421-10.17-1.202-12.62-1.202-1.611 0 .074-3.796-.601-4.808-1.266-1.899-12.92-2.204-14.424-1.202-1.79 1.194.681-.12-.6 1.803-3.952 5.927 1.777 13.221-9.616 13.221-.086 0-3.987.22-4.207 0-.37-.37.068-3.795 0-4.206-1.562-9.37.66-17.022 8.414-22.838 2.238-1.679 4.926-2.082 7.211-3.606 2.947-1.964 8.405-1.202 12.02-1.202 2.974 0 10.544-1.338 13.222 0 1.829.915 3.2 3.522 4.807 4.808 3.572 2.858 7.204 5.703 10.818 8.414 1.94 1.455 3.374 4.098 4.808 6.01 3.657 4.876 10.013 8.83 15.024 12.02 10.506 6.685 24.206.984 29.449 3.605 2.833 1.417 4.066 14.168 2.403 16.828-.913 1.461-2.003 2.804-3.004 4.207" style="opacity:1;fill:url(#H);fill-opacity:.478339;stroke:none;stroke-linejoin:round;stroke-opacity:1;filter:url(#E)" transform="rotate(165.55 264.28 227.353)"/><path d="M100.965 299.355H90.147c-11.214 0-10.818-2.077-10.818 10.217 0 .4.802 0 1.202 0h6.611c5.568 0 15.266-2.28 17.429 4.207.434 1.303-.11 20.911-.601 21.034-1.423.356-6.839-.974-7.813 0-.478.478 0 3.528 0 4.207 0 .757-.554 4.855 0 5.409.207.207 22.652 0 25.241 0 3.865 0 15.336 1.347 18.03 0 2.375-1.188 4.206-4.421 4.206-6.61 0-10.195-9.473-8.747-16.827-10.218-2.061-.412-3.744-1.803-6.01-1.803-.638 0-5.844-.09-6.61-.6-2.005-1.336-3.478-10.346-1.804-12.02 1.627-1.627 6.271-2.325 7.212-4.207.423-.845 0-3.404 0-4.207 0-6.144-5.164-5.409-10.817-5.409z" style="opacity:1;fill:url(#I);fill-opacity:.478339;stroke:none;stroke-linejoin:round;stroke-opacity:1;filter:url(#E)" transform="rotate(165.55 264.28 227.353)"/><path d="M143.635 232.427c-21.475-2.877 32.858 5.959-14.364-1.306-3.555-.547-4.918-3.917-9.14-3.917h-14.364c-1.6 0-5.576-.953-6.529 0-1.008 1.008-.616 13.13 0 14.363 2.665 5.328 11.752.302 11.752 13.058 0 1.74 1.231 3.992 0 5.223-4.382 4.382-20.26-2.928-26.115 0-3.3 1.65-.489 12.24-2.612 14.363-1.804 1.804-4.442 5.479-2.611 9.14 4.695 9.39 29.596-.436 33.95 3.918 8.73 8.73-2.2 13.058 20.892 13.058 1.476 0 8.181.959 9.14 0 5.557-5.557 1.892-34.085-1.305-40.48-2.772-5.543-11.807-4.082-14.364-11.751-4.488-13.466 16.975-2.66 16.975-6.529 0-3.078-.87-6.093-1.305-9.14" style="opacity:1;fill:url(#J);fill-opacity:.478339;stroke:none;stroke-linejoin:round;stroke-opacity:1;filter:url(#E)" transform="rotate(165.55 264.28 227.353)"/></g><g style="display:inline;opacity:.604;mix-blend-mode:overlay"><path d="M49.547 256.269c-5.358 2.678 2.63 19.95-3.873 21.45-1.742.403-16.31-3.52-18.029-1.802-.425.425 0 1.202 0 1.803 0 6.327 7.211 2.403 9.616 6.01 1.701 2.552 2.96 26.488 1.202 28.246-4.858 4.857-11.431 7.825-15.626 12.02-.681.681 0 5.683 0 6.61 0 .47-.3 2.705 0 3.005 1.962 1.962 10.857-.387 13.823.601.737.246 2.042 3.566 3.005 4.207 1.406.938 4.355 2.1 5.408 4.207 4.387 8.773-12.299 2.222-14.423 5.409-1.738 2.607 0 12.347 0 15.625 0 .742-.527 3.68 0 4.207.829.829 3.664 2.118 4.808 2.404 6.55 1.638 35.615.523 41.468-2.404 1.675-.838 6.276-17.42 6.887-18.338 2.513-3.769 9.224 2.375 13.546 1.51 2.917-.583 9.785-.81 12.62 0 2.978.851 4.69 2.381 7.813 3.006 6.871 1.374 14.544.11 21.636 1.202 5.753.885 15.678 3.712 18.63 9.615.544 1.088.29 3.563.601 4.808 1.224 4.898 4.59 11.211 9.616 13.222 2.376.95 24.065 2.386 25.842 1.202 6.886-4.59 14.25-8.327 21.635-12.02 2.34-1.17 4.487-3.662 7.212-4.207 7.26-1.452 15.213.61 21.635-4.207 3.123-2.341 14.168-13.138 16.227-16.226 2.635-3.952 2.298-17.25 1.202-21.636-1.23-4.917-6.288-12.158-10.818-14.423-2.888-1.444-8.76 1.772-11.418 0-1.616-1.077-3.082-3.862-4.808-4.207-3.594-.719-8.414 0-12.02 0-13.707 0-40.503 12.515-44.473 0-4.722-14.89-4.9-32.265-12.111-35.87-6.015-3.007-21.745 19.723-28.154 18.442-3.626-.726 1.465-14.655-2.24-15.272-3.226-.538-16.324 12.894-19.396 11.666-5.434-2.174-3.613-25.116-9.466-26.579-5.373-1.343-19.392 21.767-24.79 19.968-8.21-2.737-24.077-23.254-32.787-23.254" style="opacity:1;fill:url(#K);fill-opacity:.478339;stroke:none;stroke-linejoin:round;stroke-opacity:1;filter:url(#L)" transform="rotate(165.55 165.541 213.448)"/><path d="M81.733 346.833c-3.171-1.054-11.338 1.883-13.822-.601-9.895-9.895 4.699-32.325-9.015-41.468-1.666-1.11-2.096-1.876-4.207-2.404-4.203-1.05-10.058 0-14.423 0-.343 0-2.334-.106-2.404 0-.864 1.296 0 7.45 0 9.015 0 1.99-.939 13.147-.601 13.822 1.511 3.023 7.147 6.547 9.615 9.015 1.818 1.818 5.95 1.12 7.813 3.606 2.513 3.35.203 12.425 1.803 15.626 2.94 5.88 10.78 4.497 16.828 6.01 2.27.567 9.116.398 10.216-1.803.403-.806.384-2.739.601-3.606.01-.042 3.567-7.813 1.803-7.813-1.416 0-2.804.4-4.207.6" style="opacity:1;fill:url(#M);fill-opacity:.478339;stroke:none;stroke-linejoin:round;stroke-opacity:1;filter:url(#L)" transform="rotate(165.55 165.541 213.448)"/><path d="M116.59 381.089c-2.003-1.402-3.822-3.114-6.01-4.207-.911-.456-12.132-1.69-13.221-.601-.534.534 0 4.748 0 5.409 0 1.365-.909 3.899 0 4.808 2.763 2.763 13.547 2.404 17.428 2.404 1.347 0 8.137.878 9.015 0 .781-.782-.012-8.132-.6-9.015-1.243-1.864-4.458.586-6.612 1.202" style="opacity:1;fill:url(#N);fill-opacity:.478339;stroke:none;stroke-linejoin:round;stroke-opacity:1;filter:url(#L)" transform="rotate(165.55 165.541 213.448)"/><path d="M239.19 350.439c-.6.801-2.604 1.803-1.802 2.404.8.6 2.753-2.721 1.803-2.404-2.056.685-3.471 2.637-5.41 3.606-2.72 1.36-8.4 1.733-11.418 2.404-6.464 1.436-12.725 4.86-18.63 7.812-1.779.89-3.533 3.137-5.41 3.606-2.109.528-5.011 0-7.211 0-1.619 0-5.644.672-7.212 0-3.268-1.4-16.486-15.204-17.428-18.03-.978-2.933-.601-6.456-.601-9.615 0-.679-.478-3.729 0-4.207 4.124-4.124 13.173-8.56 10.216-17.428-.806-2.421-10.17-1.202-12.62-1.202-1.611 0 .074-3.796-.601-4.808-1.266-1.899-12.92-2.204-14.424-1.202-1.79 1.194.681-.12-.6 1.803-3.952 5.927 1.777 13.221-9.616 13.221-.086 0-3.987.22-4.207 0-.37-.37.068-3.795 0-4.206-1.562-9.37.66-17.022 8.414-22.838 2.238-1.679 4.926-2.082 7.211-3.606 2.947-1.964 8.405-1.202 12.02-1.202 2.974 0 10.544-1.338 13.222 0 1.829.915 3.2 3.522 4.807 4.808 3.572 2.858 7.204 5.703 10.818 8.414 1.94 1.455 3.374 4.098 4.808 6.01 3.657 4.876 10.013 8.83 15.024 12.02 10.506 6.685 24.206.984 29.449 3.605 2.833 1.417 4.066 14.168 2.403 16.828-.913 1.461-2.003 2.804-3.004 4.207" style="opacity:1;fill:url(#O);fill-opacity:.478339;stroke:none;stroke-linejoin:round;stroke-opacity:1;filter:url(#L)" transform="rotate(165.55 165.541 213.448)"/><path d="M100.965 299.355H90.147c-11.214 0-10.818-2.077-10.818 10.217 0 .4.802 0 1.202 0h6.611c5.568 0 15.266-2.28 17.429 4.207.434 1.303-.11 20.911-.601 21.034-1.423.356-6.839-.974-7.813 0-.478.478 0 3.528 0 4.207 0 .757-.554 4.855 0 5.409.207.207 22.652 0 25.241 0 3.865 0 15.336 1.347 18.03 0 2.375-1.188 4.206-4.421 4.206-6.61 0-10.195-9.473-8.747-16.827-10.218-2.061-.412-3.744-1.803-6.01-1.803-.638 0-5.844-.09-6.61-.6-2.005-1.336-3.478-10.346-1.804-12.02 1.627-1.627 6.271-2.325 7.212-4.207.423-.845 0-3.404 0-4.207 0-6.144-5.164-5.409-10.817-5.409z" style="opacity:1;fill:url(#P);fill-opacity:.478339;stroke:none;stroke-linejoin:round;stroke-opacity:1;filter:url(#L)" transform="rotate(165.55 165.541 213.448)"/><path d="M143.635 232.427c-21.475-2.877 32.858 5.959-14.364-1.306-3.555-.547-4.918-3.917-9.14-3.917h-14.364c-1.6 0-5.576-.953-6.529 0-1.008 1.008-.616 13.13 0 14.363 2.665 5.328 11.752.302 11.752 13.058 0 1.74 1.231 3.992 0 5.223-4.382 4.382-20.26-2.928-26.115 0-3.3 1.65-.489 12.24-2.612 14.363-1.804 1.804-4.442 5.479-2.611 9.14 4.695 9.39 29.596-.436 33.95 3.918 8.73 8.73-2.2 13.058 20.892 13.058 1.476 0 8.181.959 9.14 0 5.557-5.557 1.892-34.085-1.305-40.48-2.772-5.543-11.807-4.082-14.364-11.751-4.488-13.466 16.975-2.66 16.975-6.529 0-3.078-.87-6.093-1.305-9.14" style="opacity:1;fill:url(#Q);fill-opacity:.478339;stroke:none;stroke-linejoin:round;stroke-opacity:1;filter:url(#L)" transform="rotate(165.55 165.541 213.448)"/></g></g><ellipse cx="256" cy="47.649" clip-path="url(#S)" rx="412.05" ry="208.351" style="display:inline;opacity:1;mix-blend-mode:normal;fill:url(#R);stroke-width:1;stroke-linejoin:round"/><g style="display:inline"><path d="M190.105 353.168v19.303c-33.947-15.276-74.684 8.487-74.684 34.338 0 19.05 27.14 28.247 47.526 26.658 19.51-1.521 45.248-20.272 47.384-39.75l.143-.029v-2.546c0-4.26.097-7.046 0-8.916v-35.922z" style="display:inline;opacity:.651;mix-blend-mode:color-dodge;fill:#7c180b;fill-opacity:1;stroke:#7c170a;stroke-width:.999994;stroke-linejoin:round;stroke-opacity:1;filter:url(#T)"/><path d="m346.263 102.59-156.158 52.618V372.47c-33.947-15.276-74.684 8.487-74.684 34.338 0 19.05 27.14 28.247 47.526 26.658 19.51-1.521 45.248-20.272 47.384-39.75l.143-.029v-2.546c0-4.26.097-7.046 0-8.916V238.304l115.42-38.892v130.625c-33.947-15.277-74.684 8.487-74.684 34.338 0 19.05 27.14 28.247 47.527 26.658 20.083-1.566 46.767-21.39 47.51-41.47l.016-.007v-.849c0-4.259.098-7.045 0-8.916V180.668Z" style="display:inline;opacity:1;mix-blend-mode:overlay;fill:#7c180b;fill-opacity:1;stroke:#7c170a;stroke-width:.999994;stroke-linejoin:round;stroke-opacity:1;filter:url(#T)"/><path d="m346.263 102.59-156.158 52.618V372.47c-33.947-15.276-74.684 8.487-74.684 34.338 0 19.05 27.14 28.247 47.526 26.658 19.51-1.521 45.248-20.272 47.384-39.75l.143-.029v-2.546c0-4.26.097-7.046 0-8.916V238.304l115.42-38.892v130.625c-33.947-15.277-74.684 8.487-74.684 34.338 0 19.05 27.14 28.247 47.527 26.658 20.083-1.566 46.767-21.39 47.51-41.47l.016-.007v-.849c0-4.259.098-7.045 0-8.916V180.668Z" style="opacity:1;fill:#7c180b;fill-opacity:1;stroke:#7c170a;stroke-width:.999994;stroke-linejoin:round;stroke-opacity:1"/><path d="m346.263 102.59-156.158 52.618V372.47c-33.947-15.276-74.684 8.487-74.684 34.338 0 19.05 27.14 28.247 47.526 26.658 19.51-1.521 45.248-20.272 47.384-39.75l.143-.029v-2.546c0-4.26.097-7.046 0-8.916V238.304l115.42-38.892v130.625c-33.947-15.277-74.684 8.487-74.684 34.338 0 19.05 27.14 28.247 47.527 26.658 20.083-1.566 46.767-21.39 47.51-41.47l.016-.007v-.849c0-4.259.098-7.045 0-8.916V180.668Z" style="display:inline;opacity:1;fill:#7c180b;fill-opacity:1;stroke:#7c170a;stroke-width:.999994;stroke-linejoin:round;stroke-opacity:1;filter:url(#U)"/></g><image xlink:href="Music.PNG" width="502.421" height="516" x="512" y="4.142" preserveAspectRatio="none" style="display:inline;opacity:1;mix-blend-mode:normal;stroke-width:.294574;image-rendering:optimizeSpeed"/></svg>